<mxfile host="app.diagrams.net" agent="Mozilla/5.0 (Windows NT 10.0; Win64; x64) AppleWebKit/537.36 (KHTML, like Gecko) Chrome/128.0.0.0 Safari/537.36 OPR/114.0.0.0" version="24.8.3">
  <diagram name="Página-1" id="swSURm2lNr4_Zcp3nXl2">
    <mxGraphModel dx="1009" dy="590" grid="1" gridSize="10" guides="1" tooltips="1" connect="1" arrows="1" fold="1" page="1" pageScale="1" pageWidth="827" pageHeight="1169" math="0" shadow="0">
      <root>
        <mxCell id="0" />
        <mxCell id="1" parent="0" />
        <mxCell id="2r6ywVEqD8oQLYYT4AvA-7" style="rounded=0;orthogonalLoop=1;jettySize=auto;html=1;entryX=0;entryY=1;entryDx=0;entryDy=0;endArrow=none;endFill=0;" edge="1" parent="1" source="2r6ywVEqD8oQLYYT4AvA-1" target="2r6ywVEqD8oQLYYT4AvA-5">
          <mxGeometry relative="1" as="geometry" />
        </mxCell>
        <mxCell id="2r6ywVEqD8oQLYYT4AvA-8" style="rounded=0;orthogonalLoop=1;jettySize=auto;html=1;entryX=0;entryY=0.5;entryDx=0;entryDy=0;endArrow=none;endFill=0;" edge="1" parent="1" source="2r6ywVEqD8oQLYYT4AvA-1" target="2r6ywVEqD8oQLYYT4AvA-2">
          <mxGeometry relative="1" as="geometry" />
        </mxCell>
        <mxCell id="2r6ywVEqD8oQLYYT4AvA-9" style="rounded=0;orthogonalLoop=1;jettySize=auto;html=1;endArrow=none;endFill=0;" edge="1" parent="1" source="2r6ywVEqD8oQLYYT4AvA-1" target="2r6ywVEqD8oQLYYT4AvA-3">
          <mxGeometry relative="1" as="geometry" />
        </mxCell>
        <mxCell id="2r6ywVEqD8oQLYYT4AvA-10" style="rounded=0;orthogonalLoop=1;jettySize=auto;html=1;entryX=0;entryY=0.5;entryDx=0;entryDy=0;endArrow=none;endFill=0;" edge="1" parent="1" source="2r6ywVEqD8oQLYYT4AvA-1" target="2r6ywVEqD8oQLYYT4AvA-4">
          <mxGeometry relative="1" as="geometry" />
        </mxCell>
        <mxCell id="2r6ywVEqD8oQLYYT4AvA-1" value="Usuário" style="shape=umlActor;html=1;verticalLabelPosition=bottom;verticalAlign=top;align=center;" vertex="1" parent="1">
          <mxGeometry x="40" y="155" width="30" height="60" as="geometry" />
        </mxCell>
        <mxCell id="2r6ywVEqD8oQLYYT4AvA-2" value="Cadastrar Funcionário" style="ellipse;whiteSpace=wrap;html=1;" vertex="1" parent="1">
          <mxGeometry x="120" y="40" width="140" height="70" as="geometry" />
        </mxCell>
        <mxCell id="2r6ywVEqD8oQLYYT4AvA-3" value="Consultar Funcionário" style="ellipse;whiteSpace=wrap;html=1;" vertex="1" parent="1">
          <mxGeometry x="160" y="120" width="140" height="70" as="geometry" />
        </mxCell>
        <mxCell id="2r6ywVEqD8oQLYYT4AvA-4" value="Atualizar Funcionário" style="ellipse;whiteSpace=wrap;html=1;" vertex="1" parent="1">
          <mxGeometry x="160" y="200" width="140" height="70" as="geometry" />
        </mxCell>
        <mxCell id="2r6ywVEqD8oQLYYT4AvA-5" value="Deletar Funcionário" style="ellipse;whiteSpace=wrap;html=1;" vertex="1" parent="1">
          <mxGeometry x="120" y="280" width="140" height="70" as="geometry" />
        </mxCell>
        <mxCell id="2r6ywVEqD8oQLYYT4AvA-12" value="Solicitar Confirmação de Exclusão" style="ellipse;whiteSpace=wrap;html=1;" vertex="1" parent="1">
          <mxGeometry x="320" y="280" width="140" height="70" as="geometry" />
        </mxCell>
        <mxCell id="2r6ywVEqD8oQLYYT4AvA-13" value="&amp;lt;&amp;lt;include&amp;gt;&amp;gt;" style="edgeStyle=none;html=1;endArrow=open;verticalAlign=bottom;dashed=1;labelBackgroundColor=none;rounded=0;" edge="1" parent="1" source="2r6ywVEqD8oQLYYT4AvA-5" target="2r6ywVEqD8oQLYYT4AvA-12">
          <mxGeometry width="160" relative="1" as="geometry">
            <mxPoint x="390" y="250" as="sourcePoint" />
            <mxPoint x="550" y="250" as="targetPoint" />
          </mxGeometry>
        </mxCell>
      </root>
    </mxGraphModel>
  </diagram>
</mxfile>
